<?xml version="1.0" encoding="utf-8"?>
<!-- Generator: Adobe Illustrator 25.4.1, SVG Export Plug-In . SVG Version: 6.00 Build 0)  -->
<svg version="1.1" id="Layer_1" xmlns="http://www.w3.org/2000/svg" xmlns:xlink="http://www.w3.org/1999/xlink" x="0px" y="0px"
	 viewBox="330 275 750 100" style="enable-background:new 330 275 750 100;" xml:space="preserve">
<style type="text/css">
	.st0{fill:#F15BB5;}
	.st1{fill:#00F5D4;}
	.st2{fill:#FFFFFF;}
	.st3{fill:#00BBF9;}
	.st4{fill:#9B5DE5;}
	.st5{fill:#1B252E;}
	.st6{fill:none;}
	.st7{clip-path:url(#SVGID_00000069382085425930507100000012873252341788095634_);fill:#00BBF9;}
	.st8{clip-path:url(#SVGID_00000069382085425930507100000012873252341788095634_);fill:#F15BB5;}
	.st9{clip-path:url(#SVGID_00000069382085425930507100000012873252341788095634_);fill:#9B5DE5;}
	.st10{clip-path:url(#SVGID_00000069382085425930507100000012873252341788095634_);}
	.st11{clip-path:url(#SVGID_00000069382085425930507100000012873252341788095634_);fill:#00F5D4;}
	.st12{opacity:0.5;clip-path:url(#SVGID_00000069382085425930507100000012873252341788095634_);}
	.st13{clip-path:url(#SVGID_00000069382085425930507100000012873252341788095634_);fill:#020043;}
	.st14{clip-path:url(#SVGID_00000069382085425930507100000012873252341788095634_);fill:none;}
</style>
<g>
	<g>
		<path class="st1" d="M363.58,334.95c-0.01,0-0.01,0.01-0.01,0.01c0-0.01,0-0.01,0-0.01C363.57,334.95,363.57,334.95,363.58,334.95
			z"/>
		<path class="st1" d="M392.34,326.83v-0.19c-2.07,0-3.74-1.68-3.74-3.74h-0.19c0,2.07-1.68,3.74-3.74,3.74v0.19
			c2.07,0,3.74,1.68,3.74,3.74h0.19C388.6,328.51,390.27,326.83,392.34,326.83z"/>
		<path class="st1" d="M398.43,319.16v-0.19c-2.07,0-3.74-1.68-3.74-3.74h-0.19c0,2.07-1.68,3.74-3.74,3.74v0.19
			c2.07,0,3.74,1.68,3.74,3.74h0.19C394.69,320.83,396.36,319.16,398.43,319.16z"/>
		<path class="st1" d="M389.73,316.39v-0.19c-2.07,0-3.74-1.68-3.74-3.74h-0.19c0,2.07-1.68,3.74-3.74,3.74v0.19
			c2.07,0,3.74,1.68,3.74,3.74h0.19C385.99,318.07,387.67,316.39,389.73,316.39z"/>
		<path class="st1" d="M363.58,334.95c-0.01,0-0.01,0.01-0.01,0.01c0-0.01,0-0.01,0-0.01C363.57,334.95,363.57,334.95,363.58,334.95
			z"/>
		<path class="st1" d="M363.58,334.95c-0.01,0-0.01,0.01-0.01,0.01c0-0.01,0-0.01,0-0.01C363.57,334.95,363.57,334.95,363.58,334.95
			z"/>
		<path class="st1" d="M363.58,334.95c-0.01,0-0.01,0.01-0.01,0.01c0-0.01,0-0.01,0-0.01C363.57,334.95,363.57,334.95,363.58,334.95
			z"/>
		<path class="st1" d="M363.58,334.95c-0.01,0-0.01,0.01-0.01,0.01c0-0.01,0-0.01,0-0.01C363.57,334.95,363.57,334.95,363.58,334.95
			z"/>
		<path class="st1" d="M363.58,334.95c-0.01,0-0.01,0.01-0.01,0.01c0-0.01,0-0.01,0-0.01C363.57,334.95,363.57,334.95,363.58,334.95
			z"/>
		<path class="st1" d="M376.29,286.66c-22.03,0-39.9,17.87-39.9,39.9c0,22.04,17.87,39.9,39.9,39.9c22.03,0,39.9-17.86,39.9-39.9
			C416.19,304.53,398.33,286.66,376.29,286.66z M376.29,353.27c-14.75,0-26.71-11.96-26.71-26.71c0-14.75,11.96-26.71,26.71-26.71
			c14.75,0,26.71,11.96,26.71,26.71C403,341.31,391.04,353.27,376.29,353.27z"/>
		<path class="st1" d="M380.2,335.38c-2.35-0.68-4.05-1.7-5.86-2.62c-1.72-0.88-3.55-1.69-6.12-2.05
			c-4.69-0.66-8.94,0.56-12.23,2.05c0.1,0.33,0.2,0.65,0.32,0.98c2.94,8.26,10.83,14.17,20.09,14.17c9.36,0,17.3-6.03,20.18-14.41
			C389.15,336.71,383.86,336.44,380.2,335.38z M363.62,334.96c0-0.01,0-0.01,0-0.01c0.01,0,0.01,0.01,0.01,0.01
			C363.63,334.95,363.63,334.96,363.62,334.96z"/>
	</g>
	<g>
		<path class="st1" d="M432.87,327.68c0-13.7,7.79-22.55,20.01-22.55c11.48,0,19.4,8.28,19.4,20.05c0,2.87-1.64,4.51-4.39,4.51
			h-26.08v0.21c0,7.87,4.43,12.79,11.48,12.79c4.84,0,7.87-1.68,11.15-6.15c0.94-1.11,1.85-1.56,3.12-1.56
			c2.13,0,3.69,1.39,3.69,3.61c0,0.7-0.25,1.52-0.62,2.38c-2.83,5.66-9.1,8.9-17.14,8.9C440.5,349.87,432.87,341.63,432.87,327.68z
			 M463.42,323.5c-0.2-6.77-4.43-11.24-10.58-11.24c-6.11,0-10.54,4.51-10.99,11.24H463.42z"/>
		<path class="st1" d="M476.57,345.88c0-1.36,0.37-2.22,1.4-3.5l21.71-28.54v-0.16h-19.62c-2.38,0-3.78-1.28-3.78-3.54
			c0-2.22,1.36-3.54,3.78-3.54h25.08c3,0,4.81,1.6,4.81,4.28c0,1.4-0.49,2.47-1.77,4.19l-20.81,27.55v0.16h19.49
			c2.43,0,3.78,1.28,3.78,3.54s-1.4,3.54-3.78,3.54h-25.99C478.3,349.87,476.57,348.31,476.57,345.88z"/>
		<path class="st1" d="M528.26,281.54h3.99v68.28h-3.99V281.54z"/>
		<path class="st1" d="M584.53,306.27v42.35h-3.63v-10.07c-1.31,3.31-3.53,6.02-6.66,8.12c-3.14,2.1-6.85,3.15-11.15,3.15
			c-3.85,0-7.31-0.93-10.36-2.79c-3.06-1.86-5.45-4.49-7.19-7.88c-1.73-3.39-2.6-7.3-2.6-11.72s0.87-8.32,2.6-11.7
			c1.73-3.37,4.15-5.98,7.23-7.83c3.09-1.84,6.56-2.77,10.41-2.77c4.23,0,7.97,1.03,11.2,3.08c3.23,2.05,5.44,4.74,6.61,8.05
			l0.19-9.98H584.53z M575.6,341.11c3.06-3.45,4.58-8.09,4.58-13.92c0-5.67-1.5-10.18-4.49-13.54s-7-5.04-12.03-5.04
			c-5.03,0-9.07,1.75-12.13,5.25c-3.06,3.5-4.58,8.05-4.58,13.66c0,5.67,1.52,10.21,4.56,13.63c3.04,3.42,7.03,5.13,11.96,5.13
			C568.5,346.29,572.54,344.56,575.6,341.11z"/>
		<path class="st1" d="M631.48,305.13v43.47h-3.19l-0.74-7.84c-1.21,2.94-3.11,5.19-5.71,6.74c-2.6,1.55-5.61,2.33-9.04,2.33
			c-4.97,0-8.83-1.51-11.59-4.53c-2.76-3.02-4.14-7-4.14-11.93v-28.23h4.02v27c0,5.1,1.1,8.72,3.31,10.85
			c2.21,2.14,5.35,3.21,9.43,3.21c4.08,0,7.38-1.47,9.88-4.41c2.5-2.94,3.75-6.86,3.75-11.76v-24.9H631.48z"/>
		<path class="st1" d="M677.2,308.66c3.03,3.08,4.55,7.64,4.55,13.67v27.49h-4.12v-26.64c0-10.28-4.16-15.45-12.46-15.48
			c-4.52,0-8.19,1.37-11.01,4.12c-2.81,2.75-4.22,6.18-4.22,10.3v27.59h-4.12v-44.48h3.27l0.85,7.64c1.31-2.61,3.38-4.74,6.23-6.38
			c2.85-1.64,5.88-2.46,9.1-2.46C670.19,304.04,674.17,305.58,677.2,308.66z"/>
		<path class="st1" d="M730.36,281.54v67.09h-3.06l-0.48-10.27c-1.18,3.25-3.38,5.97-6.61,8.17c-3.23,2.2-7,3.3-11.29,3.3
			c-3.85,0-7.31-0.93-10.36-2.79c-3.06-1.86-5.45-4.49-7.19-7.88c-1.73-3.39-2.6-7.27-2.6-11.63c0-4.42,0.87-8.34,2.6-11.75
			c1.73-3.41,4.15-6.03,7.23-7.88c3.09-1.84,6.56-2.77,10.41-2.77c4.23,0,7.93,1.01,11.1,3.03c3.17,2.02,5.4,4.66,6.71,7.9v-34.52
			H730.36z M721.43,341.11c3.06-3.45,4.58-8.09,4.58-13.92c0-5.67-1.5-10.18-4.49-13.54s-7-5.04-12.03-5.04s-9.07,1.75-12.13,5.25
			c-3.06,3.5-4.58,8.05-4.58,13.66c0,5.67,1.52,10.21,4.56,13.63c3.04,3.42,7.03,5.13,11.96,5.13
			C714.33,346.29,718.38,344.56,721.43,341.11z"/>
		<path class="st1" d="M773.75,346.24c-3.52,2.39-7.66,3.58-12.44,3.58c-4.17,0-7.83-0.95-10.98-2.84
			c-3.15-1.89-5.59-4.54-7.33-7.93s-2.6-7.27-2.6-11.63c0-4.42,0.88-8.32,2.65-11.7c1.77-3.37,4.21-5.98,7.33-7.83
			c3.12-1.84,6.67-2.77,10.65-2.77c3.85,0,7.24,0.84,10.17,2.53c2.93,1.69,5.21,4.03,6.85,7.04c1.64,3.01,2.46,6.39,2.46,10.15
			c0,1.05-0.06,2.42-0.19,4.11h-36.1c0.19,5.29,1.84,9.51,4.94,12.68c3.1,3.17,7.15,4.75,12.15,4.75c3.66,0,6.89-0.88,9.69-2.65
			c2.8-1.77,4.7-4.11,5.68-7.04h3.92C779.55,340.67,777.26,343.85,773.75,346.24z M776.68,325.57c-0.06-5.16-1.5-9.27-4.3-12.34
			c-2.8-3.07-6.53-4.61-11.17-4.61c-4.97,0-9.01,1.55-12.13,4.66c-3.12,3.1-4.74,7.2-4.87,12.3H776.68z"/>
		<path class="st1" d="M815.61,305.63v3.29c-1.3-0.2-2.53-0.3-3.69-0.3c-4.09,0-7.27,1.3-9.54,3.91c-2.28,2.61-3.41,6.24-3.41,10.89
			v26.41h-4.09v-44.2h3.14l0.95,7.27c0.76-2.39,2.25-4.29,4.46-5.68c2.21-1.4,4.81-2.09,7.8-2.09
			C812.92,305.13,814.38,305.29,815.61,305.63z"/>
	</g>
</g>
</svg>
